<?xml version="1.0" encoding="utf-8"?>
<!-- Generator: Adobe Illustrator 24.3.0, SVG Export Plug-In . SVG Version: 6.00 Build 0)  -->
<svg version="1.1" id="Layer_1" xmlns="http://www.w3.org/2000/svg" xmlns:xlink="http://www.w3.org/1999/xlink" x="0px" y="0px"
	 viewBox="0 0 200 200" enable-background="new 0 0 200 200" xml:space="preserve">
<path fill="#282828" d="M100.382,131.348c-5.3,0-10.6-1.3-15.2-3.9l-36-17.2c-6.7-3.2-7.7-8-7.8-9.8c0.1-2.6,1.3-7,7.8-10.1
	l36.1-17.2c9.2-5.1,21.5-5,30.8,0.4l35.4,16.8c6.5,3.1,7.7,7.5,7.8,9.8c-0.1,2.1-1.1,6.9-7.8,10.1l-35.5,17
	C111.282,129.848,105.882,131.348,100.382,131.348z M100.382,73.248c-4.6,0-9.2,1.2-13.2,3.4l-36.3,17.3c-4.4,2.1-5.4,4.7-5.5,6.4
	c0.1,1,0.8,4,5.5,6.3l36.1,17.3c8.4,4.6,18.9,4.5,27.1-0.2l35.6-17c4.8-2.3,5.5-5.3,5.5-6.5c-0.1-1.5-1.1-4.1-5.5-6.2l-35.5-17
	C109.982,74.548,105.182,73.248,100.382,73.248z M100.382,121.948c-2.8,0-5.5-0.5-8.2-1.6l-2.4-1.1c-6.9-3.9-11.2-11.1-11.3-18.9
	c0.1-7.9,4.5-15.1,11.3-18.9l2.4-1.1c5.3-2.1,11-2.1,16.1-0.2c0.1,0,0.3,0.2,0.4,0.2l2.7,1.3c6.8,4,10.9,10.9,11,18.6
	c-0.1,7.8-4.2,14.7-10.8,18.6l-3,1.5c-0.1,0-0.3,0.2-0.4,0.2C105.682,121.448,103.082,121.948,100.382,121.948z M100.382,82.648
	c-2.3,0-4.6,0.4-6.7,1.3l-2.1,1c-5.5,3.1-9,8.9-9.1,15.3c0.1,6.3,3.7,12.2,9.2,15.3l2.1,1c4,1.6,8.8,1.7,13,0.1l2.8-1.4
	c5.3-3.1,8.6-8.8,8.7-15.1c-0.1-6.1-3.4-11.8-8.9-15l-2.6-1.2c-0.1,0-0.3-0.2-0.4-0.2C104.682,83.048,102.582,82.648,100.382,82.648
	z"/>
</svg>
